<?xml version="1.0" encoding="UTF-8" standalone="no"?>
<!-- Created with Inkscape (http://www.inkscape.org/) -->

<svg
   version="1.1"
   id="svg2"
   xml:space="preserve"
   width="215.87466"
   height="225.64133"
   viewBox="0 0 215.87466 225.64133"
   sodipodi:docname="zhaw_byline_cmyk_e.svg"
   inkscape:version="1.2.2 (b0a8486541, 2022-12-01)"
   xmlns:inkscape="http://www.inkscape.org/namespaces/inkscape"
   xmlns:sodipodi="http://sodipodi.sourceforge.net/DTD/sodipodi-0.dtd"
   xmlns="http://www.w3.org/2000/svg"
   xmlns:svg="http://www.w3.org/2000/svg"><defs
     id="defs6" /><sodipodi:namedview
     id="namedview4"
     pagecolor="#ffffff"
     bordercolor="#666666"
     borderopacity="1.0"
     inkscape:pageshadow="2"
     inkscape:pageopacity="0.0"
     inkscape:pagecheckerboard="0"
     inkscape:showpageshadow="2"
     inkscape:deskcolor="#d1d1d1"
     showgrid="false"
     inkscape:zoom="1.5907968"
     inkscape:cx="143.63871"
     inkscape:cy="145.83887"
     inkscape:window-width="777"
     inkscape:window-height="1159"
     inkscape:window-x="0"
     inkscape:window-y="0"
     inkscape:window-maximized="1"
     inkscape:current-layer="g10" /><g
     id="g8"
     inkscape:groupmode="layer"
     inkscape:label="ink_ext_XXXXXX"
     transform="matrix(1.3333333,0,0,-1.3333333,0,225.64133)"><g
       id="g10"
       transform="scale(0.1)"><path
         d="m 1340.25,1.44141 c 0.21,0 0.45,0.02734 0.64,0.02734 -0.33,0 -0.66,-0.02734 -1.01,-0.02734 0.12,0 0.23,0 0.37,0"
         style="fill:#1266ac;fill-opacity:1;fill-rule:nonzero;stroke:none"
         id="path12" /><path
         d="m 1427.55,631.832 c 0,-0.043 -3.3,-12.043 -3.3,-12.043 l -4.18,-18.019 c 0,0 -67.44,-299.809 -78.08,-347.098 -2.68,12.398 -67.42,311.476 -67.42,311.476 -2.86,12.75 -6.76,29.34 -11.68,44.731 l -4.46,12.801 c -18.81,45.34 -62.61,74.621 -111.68,74.621 -46.91,0 -89.96,-27.531 -109.68,-70.172 -3.4,-8.879 -6.49,-18.777 -9.4,-30.418 -2.73,-10.82 -5.08,-21.859 -7.13,-31.621 0,0 -57.185,-268.481 -66.599,-312.668 -2.89,12.09 -83.886,348.648 -83.886,348.648 l -3.477,14.301 c -2.246,8.828 -4.297,15.82 -6.465,22.051 -15.508,36.277 -50.937,59.758 -90.293,59.887 -28.496,-0.098 -55.761,-12.528 -74.824,-34.071 -13.926,-16.09 -22.129,-35.769 -23.711,-56.937 0,-0.039 -0.117,-4.289 -0.117,-4.289 0,-5.84 0.254,-11.551 0.84,-17.41 1.953,-20.454 7.051,-36.711 11.972,-52.422 l 131.504,-427.809 2.852,-9.0702 6.699,-19.6289 C 845.25,30.332 890.895,0.25 941.363,0.0195313 L 942.32,0 c 52.539,0.128906 98.96,31.8086 118.28,80.6992 0.04,0.1094 6.07,21.4808 6.07,21.4808 v 0 c 0,0.121 1.04,4.09 1.04,4.09 0,0 74.73,297.742 77.4,308.468 2.74,-10.918 78.4,-312.457 78.4,-312.457 l 5.59,-19.9216 C 1247.75,33.2109 1295.52,0.148438 1347.98,0 l 1.06,0.0195313 c 49.39,0.2499997 94.65,29.4687687 115.27,74.4023687 2.7,7.1601 5.35,14.8984 8.15,23.8164 l 2.24,7.1717 131.55,427.77 c 4.92,15.8 10.01,32.121 11.97,52.422 0.54,5.859 0.82,11.57 0.82,17.41 l -0.12,4.289 c -1.58,21.211 -9.8,40.898 -23.73,56.988 -19.12,21.531 -46.37,33.922 -74.78,34.02 -41.92,-0.129 -79.2,-26.868 -92.86,-66.477"
         style="fill:#1266ac;fill-opacity:1;fill-rule:nonzero;stroke:none"
         id="path14" /><path
         d="m 984.234,1589.41 -0.019,-737.621 c 0.019,-56.75 46.175,-102.91 102.905,-102.91 55.98,0 102.13,45.531 102.89,101.492 0,0.059 0,1.418 0,1.418 v 296.251 c 0,79.2 64.01,128.23 123.29,128.23 86.97,0 99.94,-69.55 99.94,-111.01 V 851.789 l 0.06,-1.707 c 0.89,-55.793 47.01,-101.184 102.79,-101.203 56.8,0 102.97,46.18 102.97,102.91 v 349.131 c 0,156.04 -89.48,249.19 -239.36,249.19 -75.86,0 -141.15,-26.36 -189.69,-75.91 0,12.98 0,215.19 0,215.19 l -0.01,1.84 c -1,55.74 -47.15,101.08 -102.88,101.08 -56.73,0 -102.886,-46.16 -102.886,-102.9"
         style="fill:#1266ac;fill-opacity:1;fill-rule:nonzero;stroke:none"
         id="path16" /><path
         d="m 447.891,260.02 c 0,-66.391 -60.254,-130.329 -158.606,-130.329 -61.472,0 -99.566,33.207 -99.566,73.778 0,54.113 40.547,77.461 115.547,88.5 l 65.164,9.84 c 20.898,3.703 57.785,9.871 77.461,28.3 z M 649.664,114.648 c -5.351,18.434 -12.07,41.364 -12.07,86.364 v 301.207 c 0,125.519 -107.11,194.633 -301.586,194.633 -182.492,0 -294.9728,-86.481 -294.9728,-169.454 0,-46.046 37.3125,-83.378 83.3668,-83.378 19.985,0 38.313,7.05 52.672,18.769 9.156,6.813 17.578,14.902 26.149,23.25 27.695,26.981 59.101,57.551 131.543,57.551 49.746,0 102.89,-16.692 102.89,-63.508 0,-40.91 -23.066,-51.031 -68.379,-56.203 L 259.895,411.582 C 131.348,396.691 0,359.23 0,194.871 0,73.8086 108.328,1.44141 213.074,1.44141 c 98.391,0 174.563,29.78909 238.137,92.46879 9.98,-59.6914 49.414,-92.46879 113.453,-92.46879 51.25,0 91.406,34.74999 91.406,79.09769 0,12.2109 -2.968,22.3709 -6.406,34.1089"
         style="fill:#1266ac;fill-opacity:1;fill-rule:nonzero;stroke:none"
         id="path18" /><path
         d="m 338.711,1326.79 v 0 c 0,0.03 0,0.06 0,0.1 0,-0.04 0,-0.07 0,-0.1"
         style="fill:#1266ac;fill-opacity:1;fill-rule:nonzero;stroke:none"
         id="path20" /><path
         d="m 421.477,1418.15 c -9.668,0 -19.106,-1.31 -28.079,-3.92 -34.445,-11.23 -57.558,-43.06 -57.597,-79.22 0,-36.25 23.086,-68.12 57.461,-79.36 9.074,-2.65 18.535,-3.96 28.215,-3.96 0,0 216.839,0 229.418,0 -8.77,-9.53 -317.758,-345.518 -317.758,-345.518 -17.817,-19.152 -26.828,-44.07 -26.828,-74.063 l 0.097,-3.98 C 308.191,791.762 336.289,751.512 393.73,749 l 5.625,-0.121 h 457.321 c 9.824,0 19.394,1.359 28.515,4.062 34.239,11.348 57.188,43.161 57.188,79.168 0,36.071 -22.988,67.911 -57.227,79.192 l -0.097,0.031 c -9.063,2.668 -18.614,4.02 -28.379,4.02 0,0 -252.598,0 -265.196,0 8.692,9.507 311.817,341.848 311.817,341.848 20.137,21.58 31.719,46.78 31.719,69.12 l -0.293,8.66 c -0.957,15.13 -4.473,28.71 -10.45,40.35 -9.453,18.47 -24.98,31.66 -44.882,38.12 -9.59,3.13 -20.118,4.7 -31.328,4.7 H 421.477"
         style="fill:#1266ac;fill-opacity:1;fill-rule:nonzero;stroke:none"
         id="path22" /></g></g></svg>
